<?xml version="1.0" encoding="UTF-8" standalone="no"?>
<!DOCTYPE svg PUBLIC "-//W3C//DTD SVG 1.1//EN" "http://www.w3.org/Graphics/SVG/1.1/DTD/svg11.dtd">
<svg width="100%" height="100%" viewBox="0 0 512 410" version="1.1" xmlns="http://www.w3.org/2000/svg" xmlns:xlink="http://www.w3.org/1999/xlink" xml:space="preserve" xmlns:serif="http://www.serif.com/" style="fill-rule:evenodd;clip-rule:evenodd;stroke-linejoin:round;stroke-miterlimit:2;">
    <g transform="matrix(1,0,0,1,0,-51.23)">
        <path d="M0,84.988L0,446.803L223.669,446.803C226.114,446.803 227.438,448.396 227.893,449.082L237.914,460.77L274.094,460.767L284.112,449.078C284.565,448.395 285.888,446.804 288.333,446.804L512,446.804L512,84.988L0,84.988Z" style="fill:rgb(185,122,149);fill-rule:nonzero;"/>
        <path d="M223.667,51.23L33.758,51.23L33.758,413.045L223.667,413.045C237.159,413.045 249.048,419.934 256,430.384L278.505,249.485L256,68.586C249.049,58.127 237.166,51.23 223.667,51.23Z" style="fill:rgb(240,238,228);fill-rule:nonzero;"/>
        <path d="M288.333,51.23C274.834,51.23 262.95,58.127 256,68.585L256,430.383C262.951,419.93 274.839,413.044 288.333,413.044L478.242,413.044L478.242,51.23L288.333,51.23Z" style="fill:rgb(113,111,129);fill-rule:nonzero;"/>
        <g>
            <path d="M210.989,104.68L78.769,104.68C74.107,104.68 70.329,100.901 70.329,96.24C70.329,91.579 74.107,87.8 78.769,87.8L210.989,87.8C215.651,87.8 219.429,91.579 219.429,96.24C219.429,100.901 215.651,104.68 210.989,104.68Z" style="fill:rgb(113,111,129);fill-rule:nonzero;"/>
            <path d="M210.989,138.439L78.769,138.439C74.107,138.439 70.329,134.66 70.329,129.999C70.329,125.338 74.107,121.559 78.769,121.559L210.989,121.559C215.651,121.559 219.429,125.338 219.429,129.999C219.429,134.66 215.651,138.439 210.989,138.439Z" style="fill:rgb(113,111,129);fill-rule:nonzero;"/>
            <path d="M210.989,172.197L78.769,172.197C74.107,172.197 70.329,168.418 70.329,163.757C70.329,159.096 74.107,155.317 78.769,155.317L210.989,155.317C215.651,155.317 219.429,159.096 219.429,163.757C219.429,168.418 215.651,172.197 210.989,172.197Z" style="fill:rgb(113,111,129);fill-rule:nonzero;"/>
            <path d="M210.989,205.955L78.769,205.955C74.107,205.955 70.329,202.176 70.329,197.515C70.329,192.854 74.107,189.075 78.769,189.075L210.989,189.075C215.651,189.075 219.429,192.854 219.429,197.515C219.429,202.176 215.651,205.955 210.989,205.955Z" style="fill:rgb(113,111,129);fill-rule:nonzero;"/>
            <path d="M210.989,239.713L78.769,239.713C74.107,239.713 70.329,235.934 70.329,231.273C70.329,226.612 74.107,222.833 78.769,222.833L210.989,222.833C215.651,222.833 219.429,226.612 219.429,231.273C219.429,235.935 215.651,239.713 210.989,239.713Z" style="fill:rgb(113,111,129);fill-rule:nonzero;"/>
            <path d="M144.879,273.472L78.769,273.472C74.107,273.472 70.329,269.693 70.329,265.032C70.329,260.371 74.107,256.592 78.769,256.592L144.879,256.592C149.541,256.592 153.319,260.371 153.319,265.032C153.319,269.693 149.541,273.472 144.879,273.472Z" style="fill:rgb(113,111,129);fill-rule:nonzero;"/>
        </g>
        <rect x="78.769" y="298.794" width="132.22" height="69.238" style="fill:rgb(185,122,149);"/>
        <g>
            <path d="M433.231,241.441L301.011,241.441C296.349,241.441 292.571,237.662 292.571,233.001C292.571,228.34 296.349,224.561 301.011,224.561L433.231,224.561C437.893,224.561 441.671,228.34 441.671,233.001C441.671,237.662 437.893,241.441 433.231,241.441Z" style="fill:rgb(240,238,228);fill-rule:nonzero;"/>
            <path d="M433.231,275.199L301.011,275.199C296.349,275.199 292.571,271.42 292.571,266.759C292.571,262.098 296.349,258.319 301.011,258.319L433.231,258.319C437.893,258.319 441.671,262.098 441.671,266.759C441.67,271.42 437.893,275.199 433.231,275.199Z" style="fill:rgb(240,238,228);fill-rule:nonzero;"/>
            <path d="M433.231,308.957L301.011,308.957C296.349,308.957 292.571,305.178 292.571,300.517C292.571,295.856 296.349,292.077 301.011,292.077L433.231,292.077C437.893,292.077 441.671,295.856 441.671,300.517C441.671,305.178 437.893,308.957 433.231,308.957Z" style="fill:rgb(240,238,228);fill-rule:nonzero;"/>
            <path d="M433.231,342.715L301.011,342.715C296.349,342.715 292.571,338.936 292.571,334.275C292.571,329.614 296.349,325.835 301.011,325.835L433.231,325.835C437.893,325.835 441.671,329.614 441.671,334.275C441.671,338.936 437.893,342.715 433.231,342.715Z" style="fill:rgb(240,238,228);fill-rule:nonzero;"/>
            <path d="M367.121,376.474L301.011,376.474C296.349,376.474 292.571,372.695 292.571,368.034C292.571,363.373 296.349,359.594 301.011,359.594L367.121,359.594C371.783,359.594 375.561,363.373 375.561,368.034C375.561,372.695 371.783,376.474 367.121,376.474Z" style="fill:rgb(240,238,228);fill-rule:nonzero;"/>
            <path d="M433.231,190.803C426.088,190.803 419.846,189.409 414.242,186.92L414.242,108.563C419.846,106.074 426.088,104.68 433.231,104.68C437.893,104.68 441.671,100.901 441.671,96.24C441.671,91.579 437.893,87.8 433.231,87.8C400.784,87.8 382.279,109.634 367.121,132.279C351.964,109.635 333.458,87.8 301.011,87.8C296.349,87.8 292.571,91.579 292.571,96.24C292.571,100.901 296.349,104.68 301.011,104.68C308.154,104.68 314.396,106.074 320,108.563L320,186.919C314.396,189.408 308.154,190.802 301.011,190.802C296.349,190.802 292.571,194.581 292.571,199.242C292.571,203.903 296.349,207.682 301.011,207.682C333.458,207.682 351.963,185.848 367.121,163.203C382.278,185.847 400.784,207.682 433.231,207.682C437.893,207.682 441.671,203.903 441.671,199.242C441.67,194.581 437.893,190.803 433.231,190.803ZM336.879,174.747L336.879,120.735C344.145,128.152 350.514,137.566 357.086,147.74C350.514,157.916 344.145,167.331 336.879,174.747ZM377.156,147.741C383.729,137.566 390.097,128.151 397.363,120.736L397.363,174.748C390.097,167.331 383.728,157.916 377.156,147.741Z" style="fill:rgb(240,238,228);fill-rule:nonzero;"/>
        </g>
    </g>
</svg>
